<svg xmlns="http://www.w3.org/2000/svg" width="333.494" height="445.684" viewBox="0 0 333.494 445.684">
  <path id="droplet" d="M324.268,205.934C295.646,126.1,234.992,54.4,170.785,0,106.579,54.415,45.924,126.1,17.3,205.934-.4,255.307-2.14,308.9,22.776,356.269c28.663,54.471,86.449,89.415,148,89.415s119.346-34.944,147.995-89.415c24.93-47.368,23.176-100.961,5.474-150.335ZM269.476,330.322c-19.067,36.24-57.8,59.652-98.691,59.652a112.019,112.019,0,0,1-66.2-22.047,134.9,134.9,0,0,0,17.465,1.156c51.114,0,99.527-29.248,123.343-74.527,19.527-37.117,17.841-75.669,10.39-106.351a298.859,298.859,0,0,1,16.031,36.532c9.833,27.451,17.423,68.05-2.34,105.585Z" transform="translate(-4.027)" fill="#374151"/>
</svg>
